<?xml version="1.0" encoding="UTF-8" standalone="no"?>
<svg
   fill="none"
   height="24"
   viewBox="0 0 24 24"
   width="24"
   version="1.1"
   id="svg1"
   sodipodi:docname="hexagon_small.svg"
   inkscape:version="1.3.2 (091e20e, 2023-11-25)"
   xmlns:inkscape="http://www.inkscape.org/namespaces/inkscape"
   xmlns:sodipodi="http://sodipodi.sourceforge.net/DTD/sodipodi-0.dtd"
   xmlns="http://www.w3.org/2000/svg"
   xmlns:svg="http://www.w3.org/2000/svg">
  <sodipodi:namedview
     id="namedview1"
     pagecolor="#ffffff"
     bordercolor="#000000"
     borderopacity="0.25"
     inkscape:showpageshadow="2"
     inkscape:pageopacity="0.0"
     inkscape:pagecheckerboard="0"
     inkscape:deskcolor="#d1d1d1"
     inkscape:zoom="17.2"
     inkscape:cx="20"
     inkscape:cy="20.116279"
     inkscape:window-width="1392"
     inkscape:window-height="1027"
     inkscape:window-x="0"
     inkscape:window-y="25"
     inkscape:window-maximized="0"
     inkscape:current-layer="svg1" />
  <defs
     id="defs1" />
  <path
     id="path1-8-2-4-3-9"
     style="fill:#ffffff;fill-opacity:1;stroke:#ffffff;stroke-width:0;stroke-dasharray:none;stroke-opacity:0.3"
     d="M 12.000781,0 C 10.664221,0 9.4469608,0.720419 7.0124998,2.1621091 l -0.824219,0.488281 c -2.434461,1.441691 -3.652009,2.162295 -4.320312,3.34961 C 1.1996655,7.1873161 1.2,8.6282901 1.2,11.511719 v 0.976562 C 1.2,15.37176 1.1996655,16.81272 1.8679688,18 c 0.668303,1.187279 1.885851,1.907933 4.320312,3.349609 l 0.824219,0.488281 C 9.4469608,23.27957 10.664221,24 12.000781,24 c 1.336558,0 2.553847,-0.72043 4.988282,-2.16211 l 0.822265,-0.488281 C 20.245768,19.907933 21.46336,19.187279 22.131641,18 22.799917,16.81272 22.79961,15.37176 22.79961,12.488281 v -0.976562 c 0,-2.8834289 3.07e-4,-4.3244029 -0.667969,-5.5117189 -0.668282,-1.187315 -1.885873,-1.907919 -4.320313,-3.34961 L 16.989063,2.1621091 C 14.554628,0.720419 13.337339,0 12.000781,0 Z m 0,4.7500001 a 1,1 0 0 1 1,1 V 14.75 a 1,1 0 0 1 -1,1 1,1 0 0 1 -1,-1 V 5.7500001 a 1,1 0 0 1 1,-1 z m 0,12.4999999 a 1,1 0 0 1 1,1 1,1 0 0 1 -1,1 1,1 0 0 1 -1,-1 1,1 0 0 1 1,-1 z" />
</svg>
