<?xml version="1.0" encoding="UTF-8" standalone="no"?>
<svg
   fill="none"
   height="40"
   viewBox="0 0 40 40"
   width="40"
   version="1.1"
   id="svg1"
   xmlns="http://www.w3.org/2000/svg"
   xmlns:svg="http://www.w3.org/2000/svg">
  <defs
     id="defs1" />
  <g
     id="g4">
    <path
       id="path1-8"
       style="fill:#ffffff;fill-opacity:0.403433;stroke:#ffffff;stroke-width:0;stroke-dasharray:none;stroke-opacity:0.3"
       d="m 20.070312,-0.01757813 c -2.227599,0 -4.257018,1.20069803 -8.314453,3.60351563 L 10.382812,4.4003906 C 6.325377,6.8032082 4.2974325,8.0035642 3.1835938,9.9824219 2.0697548,11.961281 2.0703125,14.364207 2.0703125,19.169922 v 1.625 c 0,4.805797 -5.577e-4,7.208701 1.1132813,9.1875 1.1138387,1.978798 3.1417832,3.181189 7.1992182,5.583984 l 1.373047,0.8125 c 4.057435,2.402799 6.086854,3.603516 8.314453,3.603516 2.227597,0 4.255108,-1.200717 8.3125,-3.603516 l 1.373047,-0.8125 c 4.057398,-2.402795 6.085418,-3.605186 7.199219,-5.583984 1.113796,-1.978799 1.115234,-4.381703 1.115234,-9.1875 v -1.625 c 0,-4.805715 -0.0014,-7.208641 -1.115234,-9.1875001 C 35.841276,8.0035642 33.813257,6.8032082 29.755859,4.4003906 L 28.382812,3.5859375 c -4.057392,-2.4028176 -6.084903,-3.60351563 -8.3125,-3.60351563 z m 0,12.75000013 a 1,1 0 0 1 1,1 v 9 a 1,1 0 0 1 -1,1 1,1 0 0 1 -1,-1 v -9 a 1,1 0 0 1 1,-1 z m 0,12.5 a 1,1 0 0 1 1,1 1,1 0 0 1 -1,1 1,1 0 0 1 -1,-1 1,1 0 0 1 1,-1 z" />
    <path
       id="path1-8-2"
       style="fill:#ffffff;fill-opacity:0.403433;stroke:#ffffff;stroke-width:0;stroke-dasharray:none;stroke-opacity:0.3"
       d="m 20.070312,1.9824219 c -2.004839,0 -3.83073,1.0816048 -7.482421,3.2441406 L 11.351562,5.9570312 C 7.6998706,8.1195671 5.8755019,9.2014498 4.8730469,10.982422 3.8705919,12.763395 3.8691406,14.926809 3.8691406,19.251953 v 1.462891 c 0,4.325217 0.00145,6.486659 1.0039063,8.267578 1.002455,1.780918 2.8268237,2.862875 6.4785151,5.02539 l 1.236329,0.730469 c 3.651691,2.162519 5.477582,3.244141 7.482421,3.244141 2.004837,0 3.830769,-1.081622 7.482422,-3.244141 l 1.234375,-0.730469 c 3.651659,-2.162515 5.478048,-3.244472 6.480469,-5.02539 1.002416,-1.780919 1.001953,-3.942361 1.001953,-8.267578 v -1.462891 c 0,-4.325144 4.63e-4,-6.488558 -1.001953,-8.269531 C 34.265156,9.2014498 32.438768,8.1195671 28.787109,5.9570312 L 27.552734,5.2265625 C 23.901081,3.0640267 22.075149,1.9824219 20.070312,1.9824219 Z m 0,10.7500001 a 1,1 0 0 1 1,1 v 9 a 1,1 0 0 1 -1,1 1,1 0 0 1 -1,-1 v -9 a 1,1 0 0 1 1,-1 z m 0,12.5 a 1,1 0 0 1 1,1 1,1 0 0 1 -1,1 1,1 0 0 1 -1,-1 1,1 0 0 1 1,-1 z" />
    <path
       id="path1-8-2-4"
       style="fill:#ffffff;fill-opacity:0.403433;stroke:#ffffff;stroke-width:0;stroke-dasharray:none;stroke-opacity:0.3"
       d="m 20.070312,3.9824219 c -1.78208,0 -3.406395,0.9605584 -6.652343,2.8828125 L 12.320312,7.515625 c -3.2459479,1.9222541 -4.868694,2.88371 -5.7597651,4.466797 -0.8910711,1.583087 -0.890625,3.505037 -0.890625,7.349609 v 1.300781 c 0,3.844639 -4.461e-4,5.76657 0.890625,7.34961 0.8910711,1.583038 2.5138172,2.544561 5.7597651,4.466797 l 1.097657,0.65039 c 3.245948,1.922239 4.870263,2.882813 6.652343,2.882813 1.782078,0 3.404477,-0.960574 6.650391,-2.882813 l 1.097656,-0.65039 c 3.245919,-1.922236 4.868725,-2.883759 5.759766,-4.466797 0.891036,-1.58304 0.892578,-3.504971 0.892578,-7.34961 v -1.300781 c 0,-3.844572 -0.0015,-5.766522 -0.892578,-7.349609 C 32.687083,10.399335 31.064278,9.4378791 27.818359,7.515625 L 26.720703,6.8652344 C 23.474789,4.9429803 21.85239,3.9824219 20.070312,3.9824219 Z m 0,8.7500001 a 1,1 0 0 1 1,1 v 9 a 1,1 0 0 1 -1,1 1,1 0 0 1 -1,-1 v -9 a 1,1 0 0 1 1,-1 z m 0,12.5 a 1,1 0 0 1 1,1 1,1 0 0 1 -1,1 1,1 0 0 1 -1,-1 1,1 0 0 1 1,-1 z" />
    <path
       id="path1-8-2-4-3"
       style="fill:#ffffff;fill-opacity:0.403433;stroke:#ffffff;stroke-width:0;stroke-dasharray:none;stroke-opacity:0.3"
       d="m 20.070312,5.9824219 c -1.55932,0 -2.980108,0.8414652 -5.820312,2.5234375 L 13.289062,9.0742188 C 10.448857,10.756191 9.0296872,11.597221 8.25,12.982422 c -0.7796872,1.385201 -0.7792969,3.06764 -0.7792969,6.43164 v 1.136719 c 0,3.364059 -3.903e-4,5.046481 0.7792969,6.431641 0.7796872,1.385158 2.198857,2.226247 5.039062,3.908203 L 14.25,31.458984 c 2.840204,1.68196 4.260992,2.523438 5.820312,2.523438 1.559318,0 2.978186,-0.841478 5.81836,-2.523438 l 0.960937,-0.568359 c 2.84018,-1.681956 4.261355,-2.523045 5.041016,-3.908203 0.779656,-1.38516 0.779297,-3.067582 0.779297,-6.431641 v -1.136719 c 0,-3.364 3.59e-4,-5.046439 -0.779297,-6.43164 -0.779662,-1.385201 -2.200836,-2.226231 -5.041016,-3.9082032 L 25.888672,8.5058594 C 23.048498,6.8238871 21.62963,5.9824219 20.070312,5.9824219 Z m 0,6.7500001 a 1,1 0 0 1 1,1 v 9 a 1,1 0 0 1 -1,1 1,1 0 0 1 -1,-1 v -9 a 1,1 0 0 1 1,-1 z m 0,12.5 a 1,1 0 0 1 1,1 1,1 0 0 1 -1,1 1,1 0 0 1 -1,-1 1,1 0 0 1 1,-1 z" />
    <path
       id="path1-8-2-4-3-9"
       style="fill:#ffffff;fill-opacity:1;stroke:#ffffff;stroke-width:0;stroke-dasharray:none;stroke-opacity:0.3"
       d="m 20.070312,7.9824219 c -1.33656,0 -2.55382,0.720419 -4.988281,2.1621091 l -0.824219,0.488281 c -2.434461,1.441691 -3.652009,2.162295 -4.320312,3.34961 -0.6683033,1.187316 -0.6679688,2.62829 -0.6679688,5.511719 v 0.976562 c 0,2.883479 -3.345e-4,4.324439 0.6679688,5.511719 0.668303,1.187279 1.885851,1.907933 4.320312,3.349609 l 0.824219,0.488281 c 2.434461,1.44168 3.651721,2.16211 4.988281,2.16211 1.336558,0 2.553847,-0.72043 4.988282,-2.16211 l 0.822265,-0.488281 c 2.43444,-1.441676 3.652032,-2.16233 4.320313,-3.349609 0.668276,-1.18728 0.667969,-2.62824 0.667969,-5.511719 v -0.976562 c 0,-2.883429 3.07e-4,-4.324403 -0.667969,-5.511719 -0.668282,-1.187315 -1.885873,-1.907919 -4.320313,-3.34961 L 25.058594,10.144531 C 22.624159,8.7028409 21.40687,7.9824219 20.070312,7.9824219 Z m 0,4.7500001 a 1,1 0 0 1 1,1 v 9 a 1,1 0 0 1 -1,1 1,1 0 0 1 -1,-1 v -9 a 1,1 0 0 1 1,-1 z m 0,12.5 a 1,1 0 0 1 1,1 1,1 0 0 1 -1,1 1,1 0 0 1 -1,-1 1,1 0 0 1 1,-1 z" />
  </g>
</svg>
